<?xml version="1.0" encoding="UTF-8"?>
<svg xmlns="http://www.w3.org/2000/svg" xmlns:xlink="http://www.w3.org/1999/xlink" width="40px" height="40px" viewBox="0 0 40 40" version="1.1">
<defs>
<radialGradient id="radial0" gradientUnits="userSpaceOnUse" cx="217.76" cy="3290.99" fx="217.76" fy="3290.99" r="4271.92" gradientTransform="matrix(0.0118871,0,0,0.0118871,0,0.000000000000002703)">
<stop offset="0.09" style="stop-color:rgb(98.039216%,56.078431%,12.941176%);stop-opacity:1;"/>
<stop offset="0.78" style="stop-color:rgb(84.705882%,17.647059%,49.411765%);stop-opacity:1;"/>
</radialGradient>
<radialGradient id="radial1" gradientUnits="userSpaceOnUse" cx="2330.61" cy="3182.95" fx="2330.61" fy="3182.95" r="3759.33" gradientTransform="matrix(0.0118871,0,0,0.0118871,0,0.000000000000002703)">
<stop offset="0.64" style="stop-color:rgb(54.901961%,22.745098%,66.666667%);stop-opacity:0;"/>
<stop offset="1" style="stop-color:rgb(54.901961%,22.745098%,66.666667%);stop-opacity:1;"/>
</radialGradient>
</defs>
<g id="surface1">
<path style=" stroke:none;fill-rule:nonzero;fill:url(#radial0);" d="M 10.140625 39.855469 C 7.761719 39.746094 6.472656 39.351562 5.613281 39.015625 C 4.472656 38.574219 3.660156 38.042969 2.804688 37.191406 C 1.953125 36.335938 1.421875 35.527344 0.980469 34.386719 C 0.648438 33.527344 0.25 32.234375 0.144531 29.855469 C 0.0234375 27.285156 0 26.515625 0 20 C 0 13.484375 0.0273438 12.714844 0.140625 10.140625 C 0.25 7.761719 0.648438 6.472656 0.980469 5.613281 C 1.425781 4.472656 1.953125 3.660156 2.804688 2.804688 C 3.660156 1.953125 4.472656 1.421875 5.609375 0.980469 C 6.46875 0.644531 7.761719 0.25 10.140625 0.140625 C 12.714844 0.0234375 13.484375 0 19.996094 0 C 26.511719 0 27.28125 0.0273438 29.855469 0.140625 C 32.234375 0.25 33.523438 0.648438 34.386719 0.980469 C 35.523438 1.421875 36.335938 1.953125 37.191406 2.804688 C 38.046875 3.660156 38.574219 4.472656 39.015625 5.609375 C 39.351562 6.46875 39.746094 7.761719 39.855469 10.140625 C 39.972656 12.714844 39.996094 13.484375 39.996094 20 C 39.996094 26.511719 39.972656 27.285156 39.855469 29.855469 C 39.746094 32.234375 39.347656 33.527344 39.015625 34.386719 C 38.574219 35.527344 38.042969 36.335938 37.191406 37.191406 C 36.335938 38.042969 35.523438 38.574219 34.386719 39.015625 C 33.527344 39.351562 32.234375 39.746094 29.855469 39.855469 C 27.285156 39.972656 26.511719 39.996094 19.996094 39.996094 C 13.484375 39.996094 12.714844 39.972656 10.140625 39.855469 "/>
<path style=" stroke:none;fill-rule:nonzero;fill:url(#radial1);" d="M 10.140625 39.855469 C 7.761719 39.746094 6.472656 39.351562 5.613281 39.015625 C 4.472656 38.574219 3.660156 38.042969 2.804688 37.191406 C 1.953125 36.335938 1.421875 35.527344 0.980469 34.386719 C 0.648438 33.527344 0.25 32.234375 0.144531 29.855469 C 0.0234375 27.285156 0 26.515625 0 20 C 0 13.484375 0.0273438 12.714844 0.140625 10.140625 C 0.25 7.761719 0.648438 6.472656 0.980469 5.613281 C 1.425781 4.472656 1.953125 3.660156 2.804688 2.804688 C 3.660156 1.953125 4.472656 1.421875 5.609375 0.980469 C 6.46875 0.644531 7.761719 0.25 10.140625 0.140625 C 12.714844 0.0234375 13.484375 0 19.996094 0 C 26.511719 0 27.28125 0.0273438 29.855469 0.140625 C 32.234375 0.25 33.523438 0.648438 34.386719 0.980469 C 35.523438 1.421875 36.335938 1.953125 37.191406 2.804688 C 38.046875 3.660156 38.574219 4.472656 39.015625 5.609375 C 39.351562 6.46875 39.746094 7.761719 39.855469 10.140625 C 39.972656 12.714844 39.996094 13.484375 39.996094 20 C 39.996094 26.511719 39.972656 27.285156 39.855469 29.855469 C 39.746094 32.234375 39.347656 33.527344 39.015625 34.386719 C 38.574219 35.527344 38.042969 36.335938 37.191406 37.191406 C 36.335938 38.042969 35.523438 38.574219 34.386719 39.015625 C 33.527344 39.351562 32.234375 39.746094 29.855469 39.855469 C 27.285156 39.972656 26.511719 39.996094 19.996094 39.996094 C 13.484375 39.996094 12.714844 39.972656 10.140625 39.855469 "/>
<path style=" stroke:none;fill-rule:nonzero;fill:rgb(100%,100%,100%);fill-opacity:1;" d="M 15.085938 20.082031 C 15.085938 17.347656 17.304688 15.128906 20.039062 15.128906 C 22.773438 15.128906 24.992188 17.347656 24.992188 20.082031 C 24.992188 22.820312 22.773438 25.035156 20.039062 25.035156 C 17.304688 25.035156 15.085938 22.820312 15.085938 20.082031 M 12.410156 20.082031 C 12.410156 24.296875 15.824219 27.714844 20.039062 27.714844 C 24.253906 27.714844 27.667969 24.296875 27.667969 20.082031 C 27.667969 15.871094 24.253906 12.453125 20.039062 12.453125 C 15.824219 12.453125 12.410156 15.871094 12.410156 20.082031 M 26.1875 12.152344 C 26.1875 13.136719 26.988281 13.933594 27.972656 13.933594 C 28.957031 13.933594 29.753906 13.136719 29.753906 12.152344 C 29.753906 11.167969 28.957031 10.367188 27.972656 10.367188 C 26.988281 10.371094 26.191406 11.167969 26.1875 12.152344 M 14.035156 32.179688 C 12.589844 32.113281 11.800781 31.871094 11.277344 31.667969 C 10.582031 31.398438 10.089844 31.074219 9.570312 30.554688 C 9.046875 30.035156 8.726562 29.542969 8.457031 28.847656 C 8.253906 28.324219 8.011719 27.539062 7.945312 26.089844 C 7.875 24.523438 7.859375 24.050781 7.859375 20.082031 C 7.859375 16.117188 7.875 15.644531 7.945312 14.078125 C 8.011719 12.628906 8.253906 11.84375 8.457031 11.320312 C 8.726562 10.625 9.046875 10.132812 9.570312 9.609375 C 10.089844 9.089844 10.582031 8.769531 11.277344 8.5 C 11.800781 8.296875 12.589844 8.054688 14.035156 7.988281 C 15.601562 7.914062 16.074219 7.902344 20.039062 7.902344 C 24.007812 7.902344 24.476562 7.917969 26.042969 7.988281 C 27.492188 8.054688 28.28125 8.296875 28.804688 8.5 C 29.496094 8.769531 29.992188 9.089844 30.511719 9.609375 C 31.035156 10.128906 31.355469 10.625 31.625 11.320312 C 31.828125 11.84375 32.070312 12.628906 32.136719 14.078125 C 32.207031 15.648438 32.222656 16.117188 32.222656 20.082031 C 32.222656 24.050781 32.207031 24.519531 32.136719 26.089844 C 32.070312 27.539062 31.828125 28.324219 31.625 28.847656 C 31.355469 29.542969 31.03125 30.035156 30.511719 30.554688 C 29.992188 31.074219 29.496094 31.398438 28.804688 31.667969 C 28.28125 31.871094 27.492188 32.113281 26.042969 32.179688 C 24.476562 32.25 24.007812 32.265625 20.039062 32.265625 C 16.070312 32.265625 15.601562 32.25 14.035156 32.179688 M 13.914062 5.316406 C 12.332031 5.386719 11.25 5.636719 10.308594 6.003906 C 9.332031 6.382812 8.503906 6.894531 7.675781 7.71875 C 6.847656 8.542969 6.339844 9.371094 5.960938 10.351562 C 5.59375 11.296875 5.34375 12.375 5.269531 13.957031 C 5.199219 15.542969 5.179688 16.046875 5.179688 20.082031 C 5.179688 24.117188 5.199219 24.625 5.269531 26.210938 C 5.34375 27.792969 5.59375 28.871094 5.960938 29.816406 C 6.339844 30.792969 6.847656 31.621094 7.675781 32.449219 C 8.5 33.273438 9.328125 33.78125 10.308594 34.164062 C 11.253906 34.53125 12.332031 34.78125 13.914062 34.851562 C 15.5 34.925781 16.003906 34.941406 20.039062 34.941406 C 24.074219 34.941406 24.582031 34.925781 26.164062 34.851562 C 27.746094 34.78125 28.828125 34.53125 29.773438 34.164062 C 30.75 33.78125 31.578125 33.273438 32.40625 32.449219 C 33.230469 31.621094 33.738281 30.792969 34.117188 29.816406 C 34.484375 28.871094 34.738281 27.792969 34.808594 26.210938 C 34.878906 24.625 34.898438 24.117188 34.898438 20.082031 C 34.898438 16.046875 34.878906 15.542969 34.808594 13.957031 C 34.738281 12.375 34.484375 11.292969 34.117188 10.351562 C 33.738281 9.375 33.230469 8.546875 32.40625 7.71875 C 31.578125 6.890625 30.75 6.382812 29.773438 6.003906 C 28.828125 5.636719 27.746094 5.386719 26.167969 5.316406 C 24.582031 5.242188 24.078125 5.222656 20.042969 5.222656 C 16.007812 5.222656 15.5 5.242188 13.914062 5.316406 "/>
</g>
</svg>
